<svg width="512" height="512" xmlns="http://www.w3.org/2000/svg">
  <defs>
    <linearGradient id="bg" x1="0" y1="0" x2="1" y2="1">
      <stop offset="0%" stop-color="#6366f1"/>
      <stop offset="100%" stop-color="#7c3aed"/>
    </linearGradient>
  </defs>
  <rect width="512" height="512" rx="96" fill="url(#bg)"/>
  <!-- Piano keys -->
  <rect x="96" y="200" width="320" height="180" rx="12" fill="white" opacity="0.95"/>
  <!-- White keys -->
  <rect x="106" y="210" width="40" height="160" rx="4" fill="white" stroke="#e2e8f0" stroke-width="1.5"/>
  <rect x="150" y="210" width="40" height="160" rx="4" fill="white" stroke="#e2e8f0" stroke-width="1.5"/>
  <rect x="194" y="210" width="40" height="160" rx="4" fill="white" stroke="#e2e8f0" stroke-width="1.5"/>
  <rect x="238" y="210" width="40" height="160" rx="4" fill="white" stroke="#e2e8f0" stroke-width="1.5"/>
  <rect x="282" y="210" width="40" height="160" rx="4" fill="white" stroke="#e2e8f0" stroke-width="1.5"/>
  <rect x="326" y="210" width="40" height="160" rx="4" fill="white" stroke="#e2e8f0" stroke-width="1.5"/>
  <rect x="370" y="210" width="40" height="160" rx="4" fill="white" stroke="#e2e8f0" stroke-width="1.5"/>
  <!-- Black keys -->
  <rect x="132" y="210" width="28" height="100" rx="4" fill="#1e293b"/>
  <rect x="176" y="210" width="28" height="100" rx="4" fill="#1e293b"/>
  <rect x="264" y="210" width="28" height="100" rx="4" fill="#1e293b"/>
  <rect x="308" y="210" width="28" height="100" rx="4" fill="#1e293b"/>
  <rect x="352" y="210" width="28" height="100" rx="4" fill="#1e293b"/>
</svg>
