<svg width="512" height="512" xmlns="http://www.w3.org/2000/svg">
  <defs>
    <linearGradient id="bg" x1="0" y1="0" x2="1" y2="1">
      <stop offset="0%" stop-color="#6366f1"/>
      <stop offset="100%" stop-color="#7c3aed"/>
    </linearGradient>
  </defs>
  <rect width="512" height="512" fill="url(#bg)"/>
  <!-- Bold piano icon matching header style, scaled to fill -->
  <g transform="translate(96, 96) scale(13.3)">
    <path d="M19 3H5c-1.1 0-2 .9-2 2v14c0 1.1.9 2 2 2h14c1.1 0 2-.9 2-2V5c0-1.1-.9-2-2-2zm-2 14H7v-4h2v2h2v-2h2v2h2v-2h2v4zm0-6h-2V9h-2v2h-2V9H9v2H7V7h10v4z" fill="white"/>
  </g>
</svg>
