<svg width="512" height="512" xmlns="http://www.w3.org/2000/svg">
  <defs>
    <linearGradient id="bg" x1="0" y1="0" x2="1" y2="1">
      <stop offset="0%" stop-color="#6366f1"/>
      <stop offset="100%" stop-color="#7c3aed"/>
    </linearGradient>
  </defs>
  <rect width="512" height="512" fill="url(#bg)"/>
  <!-- Piano keys block -->
  <rect x="116" y="190" width="280" height="160" rx="12" fill="white"/>
  <!-- White key dividers -->
  <line x1="156" y1="190" x2="156" y2="350" stroke="#d1d5db" stroke-width="2"/>
  <line x1="196" y1="190" x2="196" y2="350" stroke="#d1d5db" stroke-width="2"/>
  <line x1="236" y1="190" x2="236" y2="350" stroke="#d1d5db" stroke-width="2"/>
  <line x1="276" y1="190" x2="276" y2="350" stroke="#d1d5db" stroke-width="2"/>
  <line x1="316" y1="190" x2="316" y2="350" stroke="#d1d5db" stroke-width="2"/>
  <line x1="356" y1="190" x2="356" y2="350" stroke="#d1d5db" stroke-width="2"/>
  <!-- Black keys -->
  <rect x="143" y="190" width="26" height="100" rx="4" fill="#1e1b3a"/>
  <rect x="183" y="190" width="26" height="100" rx="4" fill="#1e1b3a"/>
  <rect x="263" y="190" width="26" height="100" rx="4" fill="#1e1b3a"/>
  <rect x="303" y="190" width="26" height="100" rx="4" fill="#1e1b3a"/>
  <rect x="343" y="190" width="26" height="100" rx="4" fill="#1e1b3a"/>
</svg>
